<svg width="32" height="32" viewBox="0 0 32 32" fill="none" xmlns="http://www.w3.org/2000/svg">
<rect width="32" height="32" rx="16" fill="#F4F4F8"/>
<g clip-path="url(#clip0_311_2081)">
<path d="M22.2956 10.7946C21.1377 10.2633 19.896 9.87186 18.5978 9.64767C18.5741 9.64334 18.5505 9.65416 18.5383 9.67578C18.3786 9.9598 18.2018 10.3303 18.0779 10.6216C16.6815 10.4125 15.2924 10.4125 13.9246 10.6216C13.8008 10.3239 13.6174 9.9598 13.457 9.67578C13.4449 9.65488 13.4212 9.64406 13.3976 9.64767C12.1001 9.87114 10.8584 10.2626 9.69978 10.7946C9.68975 10.7989 9.68115 10.8061 9.67545 10.8155C7.32026 14.3341 6.67507 17.7662 6.99158 21.1558C6.99301 21.1724 7.00232 21.1882 7.01521 21.1983C8.5691 22.3394 10.0743 23.0322 11.5516 23.4914C11.5752 23.4986 11.6002 23.49 11.6153 23.4705C11.9647 22.9933 12.2762 22.4901 12.5433 21.961C12.5591 21.93 12.544 21.8932 12.5118 21.881C12.0177 21.6936 11.5473 21.465 11.0947 21.2055C11.0589 21.1846 11.056 21.1334 11.089 21.1089C11.1842 21.0375 11.2795 20.9633 11.3704 20.8883C11.3869 20.8746 11.4098 20.8717 11.4291 20.8804C14.4023 22.2378 17.621 22.2378 20.5591 20.8804C20.5784 20.871 20.6014 20.8739 20.6185 20.8876C20.7095 20.9626 20.8047 21.0375 20.9007 21.1089C20.9336 21.1334 20.9315 21.1846 20.8957 21.2055C20.4431 21.4701 19.9726 21.6936 19.4778 21.8803C19.4456 21.8925 19.4313 21.93 19.447 21.961C19.7199 22.4894 20.0313 22.9926 20.3743 23.4698C20.3887 23.49 20.4144 23.4986 20.4381 23.4914C21.9225 23.0322 23.4277 22.3394 24.9816 21.1983C24.9952 21.1882 25.0038 21.1731 25.0052 21.1565C25.384 17.2378 24.3708 13.8338 22.3192 10.8162C22.3142 10.8061 22.3056 10.7989 22.2956 10.7946ZM12.9873 19.0919C12.0922 19.0919 11.3546 18.2701 11.3546 17.2609C11.3546 16.2516 12.0779 15.4298 12.9873 15.4298C13.9039 15.4298 14.6343 16.2588 14.62 17.2609C14.62 18.2701 13.8967 19.0919 12.9873 19.0919ZM19.0238 19.0919C18.1287 19.0919 17.3912 18.2701 17.3912 17.2609C17.3912 16.2516 18.1144 15.4298 19.0238 15.4298C19.9404 15.4298 20.6708 16.2588 20.6565 17.2609C20.6565 18.2701 19.9404 19.0919 19.0238 19.0919Z" fill="black"/>
</g>
<defs>
<clipPath id="clip0_311_2081">
<rect x="6.8335" y="6.83325" width="18.3333" height="18.3333" rx="6" fill="white"/>
</clipPath>
</defs>
</svg>
