<svg width="32" height="32" viewBox="0 0 32 32" fill="none" xmlns="http://www.w3.org/2000/svg">
<rect width="32" height="32" rx="16" fill="#F4F4F8"/>
<path d="M25.1153 12.2202C25.0713 11.2441 24.9136 10.5762 24.6899 9.99278C24.4552 9.39096 24.1435 8.87722 23.6337 8.37082C23.1239 7.86441 22.6142 7.54515 22.0127 7.31397C21.4296 7.08645 20.7621 6.93233 19.7866 6.8883C18.8074 6.84426 18.4957 6.83325 16.0092 6.83325C13.519 6.83325 13.2073 6.84426 12.2317 6.8883C11.2562 6.93233 10.5888 7.09012 10.0056 7.31397C9.40052 7.54882 8.88708 7.86074 8.38098 8.37082C7.87488 8.88089 7.55581 9.39096 7.32477 9.99278C7.10106 10.5762 6.94336 11.2441 6.89935 12.2202C6.85534 13.2 6.84434 13.5119 6.84434 15.9999C6.84434 18.4916 6.85534 18.8035 6.89935 19.7796C6.94336 20.7557 7.10106 21.4236 7.32477 22.0071C7.55948 22.6089 7.87121 23.1226 8.38098 23.629C8.88708 24.1391 9.40052 24.4547 10.002 24.6859C10.5851 24.9134 11.2526 25.0675 12.2281 25.1115C13.2073 25.1556 13.519 25.1666 16.0055 25.1666C18.4957 25.1666 18.8074 25.1556 19.7829 25.1115C20.7585 25.0675 21.4259 24.9097 22.009 24.6859C22.6105 24.451 23.1239 24.1391 23.63 23.629C24.1361 23.1189 24.4552 22.6089 24.6862 22.0071C24.9136 21.4236 25.0676 20.7557 25.1117 19.7796C25.1557 18.7998 25.1667 18.4879 25.1667 15.9999C25.1667 13.5119 25.1593 13.1963 25.1153 12.2202ZM23.4687 19.7062C23.4283 20.6016 23.278 21.0897 23.1533 21.4089C22.9882 21.8346 22.7865 22.1428 22.4638 22.4658C22.1411 22.7887 21.8367 22.9832 21.4076 23.1556C21.0849 23.2804 20.5971 23.4309 19.7059 23.4712C18.7414 23.5153 18.4517 23.5263 16.0018 23.5263C13.552 23.5263 13.2623 23.5153 12.2978 23.4712C11.4029 23.4309 10.9152 23.2804 10.5961 23.1556C10.1707 22.9905 9.86261 22.7887 9.53988 22.4658C9.21715 22.1428 9.02277 21.8383 8.85041 21.4089C8.72571 21.086 8.57535 20.5979 8.53501 19.7062C8.491 18.7411 8.48 18.4512 8.48 15.9999C8.48 13.5486 8.491 13.2587 8.53501 12.2936C8.57535 11.3982 8.72571 10.9102 8.85041 10.5909C9.01544 10.1653 9.21715 9.857 9.53988 9.53408C9.86261 9.21115 10.167 9.01667 10.5961 8.84419C10.9188 8.71943 11.4066 8.56897 12.2978 8.52861C13.2623 8.48457 13.552 8.47356 16.0018 8.47356C18.4517 8.47356 18.7414 8.48457 19.7059 8.52861C20.6008 8.56897 21.0885 8.71943 21.4076 8.84419C21.833 9.00933 22.1411 9.21115 22.4638 9.53408C22.7865 9.857 22.9809 10.1616 23.1533 10.5909C23.278 10.9138 23.4283 11.4019 23.4687 12.2936C23.5127 13.2587 23.5237 13.5486 23.5237 15.9999C23.5237 18.4512 23.509 18.7411 23.4687 19.7062Z" fill="black"/>
<path d="M16.0019 11.2881C13.398 11.2881 11.2929 13.3981 11.2929 15.9999C11.2929 18.6053 13.4017 20.7116 16.0019 20.7116C18.6021 20.7116 20.7108 18.5979 20.7108 15.9999C20.7108 13.3944 18.6057 11.2881 16.0019 11.2881ZM16.0019 19.0566C14.3149 19.0566 12.9469 17.6879 12.9469 15.9999C12.9469 14.3118 14.3149 12.9431 16.0019 12.9431C17.6889 12.9431 19.0568 14.3118 19.0568 15.9999C19.0568 17.6879 17.6889 19.0566 16.0019 19.0566Z" fill="black"/>
<path d="M20.8942 12.2057C21.5018 12.2057 21.9944 11.7128 21.9944 11.1048C21.9944 10.4968 21.5018 10.0039 20.8942 10.0039C20.2865 10.0039 19.7939 10.4968 19.7939 11.1048C19.7939 11.7128 20.2865 12.2057 20.8942 12.2057Z" fill="black"/>
<path d="M6.83334 15.9999C6.83334 18.4916 6.84434 18.8035 6.88835 19.7796C6.93236 20.7557 7.09005 21.4236 7.31377 22.0071C7.54848 22.6089 7.86021 23.1226 8.36998 23.629C8.87608 24.1354 9.38951 24.4547 9.99097 24.6859C10.5741 24.9134 11.2416 25.0675 12.2171 25.1115C13.1963 25.1556 13.508 25.1666 15.9945 25.1666C18.4847 25.1666 18.7964 25.1556 19.7719 25.1115C20.7475 25.0675 21.4149 24.9097 21.998 24.6859C22.5995 24.451 23.1129 24.1391 23.619 23.629C24.1251 23.1226 24.4442 22.6089 24.6752 22.0071C24.9026 21.4236 25.0566 20.7557 25.1007 19.7796C25.1447 18.7998 25.1557 18.4879 25.1557 15.9999C25.1557 13.5083 25.1447 13.1963 25.1007 12.2202C25.0566 11.2441 24.8989 10.5762 24.6752 9.99278C24.4405 9.39096 24.1288 8.87722 23.619 8.37082C23.1166 7.86074 22.6032 7.54515 22.0017 7.31397C21.4186 7.08645 20.7511 6.93233 19.7756 6.8883C18.7964 6.84426 18.4847 6.83325 15.9982 6.83325C13.508 6.83325 13.1963 6.84426 12.2207 6.8883C11.2452 6.93233 10.5778 7.09012 9.99463 7.31397C9.39318 7.54882 8.87975 7.86074 8.37364 8.37082C7.86754 8.88089 7.54848 9.39096 7.31743 9.99278C7.09005 10.5762 6.93236 11.2441 6.88835 12.2202C6.84434 13.1963 6.83334 13.5083 6.83334 15.9999ZM8.48733 15.9999C8.48733 13.5523 8.49834 13.2587 8.54234 12.2936C8.58269 11.3982 8.73305 10.9102 8.85774 10.5909C9.02277 10.1653 9.22448 9.857 9.54721 9.53408C9.86994 9.21115 10.1743 9.01667 10.6034 8.84419C10.9262 8.71943 11.4139 8.56897 12.3051 8.52861C13.2696 8.48457 13.5593 8.47356 16.0092 8.47356C18.459 8.47356 18.7487 8.48457 19.7132 8.52861C20.6081 8.56897 21.0959 8.71943 21.4149 8.84419C21.8403 9.00933 22.1484 9.21115 22.4711 9.53408C22.7939 9.857 22.9882 10.1616 23.1606 10.5909C23.2853 10.9138 23.4357 11.4019 23.476 12.2936C23.52 13.2587 23.531 13.5486 23.531 15.9999C23.531 18.4512 23.52 18.7411 23.476 19.7062C23.4357 20.6016 23.2853 21.0897 23.1606 21.4089C22.9956 21.8346 22.7939 22.1428 22.4711 22.4658C22.1484 22.7887 21.844 22.9832 21.4149 23.1556C21.0922 23.2804 20.6044 23.4309 19.7132 23.4712C18.7487 23.5153 18.459 23.5263 16.0092 23.5263C13.5593 23.5263 13.2696 23.5153 12.3051 23.4712C11.4103 23.4309 10.9225 23.2804 10.6034 23.1556C10.178 22.9905 9.86994 22.7887 9.54721 22.4658C9.22448 22.1428 9.03011 21.8383 8.85774 21.4089C8.73305 21.086 8.58269 20.5979 8.54234 19.7062C8.49467 18.7411 8.48733 18.4475 8.48733 15.9999Z" fill="black"/>
</svg>
