<svg width="32" height="32" viewBox="0 0 32 32" fill="none" xmlns="http://www.w3.org/2000/svg">
<rect width="32" height="32" rx="16" fill="#F4F4F8"/>
<g clip-path="url(#clip0_285_1337)">
<path d="M6.83333 9.27897C6.83333 8.68908 7.0398 8.20243 7.4527 7.81903C7.86561 7.4356 8.40241 7.2439 9.06306 7.2439C9.71193 7.2439 10.2369 7.43264 10.638 7.81018C11.0509 8.19949 11.2574 8.70678 11.2574 9.33206C11.2574 9.89834 11.0568 10.3702 10.6557 10.7478C10.2428 11.1371 9.70013 11.3317 9.02767 11.3317H9.00997C8.36111 11.3317 7.83613 11.1371 7.43501 10.7478C7.03389 10.3584 6.83333 9.86884 6.83333 9.27897ZM7.06339 24.7632V12.9421H10.992V24.7632H7.06339ZM13.1686 24.7632H17.0972V18.1625C17.0972 17.7496 17.1444 17.431 17.2387 17.2069C17.4039 16.8058 17.6546 16.4666 17.9908 16.1894C18.3271 15.9121 18.7488 15.7735 19.2561 15.7735C20.5774 15.7735 21.2381 16.6642 21.2381 18.4456V24.7632H25.1667V17.9855C25.1667 16.2395 24.7538 14.9152 23.9279 14.0127C23.1021 13.1102 22.0108 12.659 20.6541 12.659C19.1322 12.659 17.9466 13.3137 17.0972 14.6232V14.6586H17.0795L17.0972 14.6232V12.9421H13.1686C13.1922 13.3196 13.204 14.4935 13.204 16.4637C13.204 18.4338 13.1922 21.2003 13.1686 24.7632Z" fill="black"/>
</g>
<defs>
<clipPath id="clip0_285_1337">
<rect width="18.3333" height="18.3333" fill="white" transform="translate(6.83333 6.83325)"/>
</clipPath>
</defs>
</svg>
