<svg width="32" height="32" viewBox="0 0 32 32" fill="none" xmlns="http://www.w3.org/2000/svg">
<rect width="32" height="32" rx="16" fill="#F4F4F8"/>
<path d="M22.9186 12.3185C22.9256 12.4798 22.9256 12.6338 22.9256 12.7951C22.9327 17.6865 19.339 23.3332 12.7671 23.3332C10.8288 23.3332 8.92581 22.7538 7.29167 21.6685C7.57464 21.7052 7.85761 21.7198 8.14057 21.7198C9.74642 21.7198 11.3098 21.1625 12.5761 20.1285C11.0481 20.0992 9.70397 19.0652 9.23708 17.5545C9.77471 17.6645 10.3265 17.6425 10.85 17.4885C9.18756 17.1512 7.99202 15.6331 7.98494 13.8658C7.98494 13.8511 7.98494 13.8365 7.98494 13.8218C8.48014 14.1078 9.039 14.2691 9.60493 14.2838C8.04154 13.1985 7.55342 11.0351 8.50136 9.34113C10.3194 11.6585 12.9935 13.0591 15.8656 13.2131C15.5756 11.9298 15.9717 10.5805 16.8984 9.67113C18.3345 8.27046 20.5982 8.34379 21.9565 9.83246C22.7559 9.67113 23.5269 9.36313 24.2273 8.93046C23.9585 9.78846 23.3996 10.5145 22.6568 10.9765C23.3642 10.8885 24.0575 10.6905 24.7083 10.3971C24.2273 11.1451 23.6189 11.7905 22.9186 12.3185Z" fill="black"/>
</svg>
