<svg width="32" height="32" viewBox="0 0 32 32" fill="none" xmlns="http://www.w3.org/2000/svg">
<rect width="32" height="32" rx="16" fill="#F4F4F8"/>
<path fill-rule="evenodd" clip-rule="evenodd" d="M8.38941 15.4601C13.1267 13.3961 16.2856 12.0355 17.8661 11.378C22.379 9.50101 23.3167 9.17494 23.9279 9.16418C24.0623 9.16181 24.3629 9.19512 24.5576 9.35311C24.722 9.4865 24.7672 9.6667 24.7889 9.79318C24.8105 9.91966 24.8375 10.2078 24.816 10.4329C24.5715 13.0024 23.5133 19.238 22.975 22.1159C22.7472 23.3336 22.2986 23.742 21.8644 23.7819C20.9207 23.8688 20.2042 23.1583 19.2902 22.5591C17.8599 21.6216 17.052 21.038 15.6637 20.1231C14.0593 19.0659 15.0993 18.4848 16.0137 17.5351C16.253 17.2866 20.4108 13.5047 20.4913 13.1616C20.5014 13.1187 20.5107 12.9588 20.4157 12.8743C20.3207 12.7898 20.1804 12.8187 20.0792 12.8417C19.9358 12.8743 17.651 14.3844 13.2248 17.3722C12.5763 17.8175 11.9889 18.0345 11.4626 18.0231C10.8824 18.0106 9.76626 17.6951 8.93656 17.4254C7.91889 17.0946 7.11007 16.9197 7.1805 16.3579C7.21719 16.0652 7.62015 15.766 8.38941 15.4601Z" fill="black"/>
</svg>
